<?xml version="1.0" encoding="utf-8"?>
<svg viewBox="75.229 1.077 324.666 508.094" xmlns="http://www.w3.org/2000/svg">
  <g transform="matrix(0.9999999999999999, 0, 0, 0.9999999999999999, -18.456417083740234, 1.4145839214324951)">
    <g>
      <g>
        <path d="M 379.811 47.385 L 379.811 0 L 132.189 0 L 132.189 47.385 C 110.533 51.019 93.975 69.888 93.975 92.562 L 93.975 115.296 L 93.975 443.448 L 93.975 466.182 C 93.975 491.446 114.529 512 139.793 512 L 372.207 512 C 397.471 512 418.025 491.446 418.025 466.182 L 418.025 92.561 C 418.026 69.888 401.468 51.02 379.811 47.385 Z M 346.609 15.208 L 364.603 15.208 L 364.603 46.743 L 346.609 46.743 L 346.609 15.208 Z M 313.407 15.208 L 331.401 15.208 L 331.401 46.743 L 313.407 46.743 L 313.407 15.208 Z M 280.205 15.208 L 298.199 15.208 L 298.199 46.743 L 280.205 46.743 L 280.205 15.208 Z M 247.003 15.208 L 264.997 15.208 L 264.997 46.743 L 247.003 46.743 L 247.003 15.208 Z M 213.801 15.208 L 231.795 15.208 L 231.795 46.743 L 213.801 46.743 L 213.801 15.208 Z M 180.599 15.208 L 198.593 15.208 L 198.593 46.743 L 180.599 46.743 L 180.599 15.208 Z M 147.397 15.208 L 165.391 15.208 L 165.391 46.743 L 147.397 46.743 L 147.397 15.208 Z M 372.208 496.792 L 139.793 496.792 C 122.914 496.792 109.182 483.06 109.182 466.181 L 109.182 443.447 L 403.926 442.334 L 404.857 425.457 L 109.182 428.24 L 109.182 130.503 L 403.744 129.39 L 403.926 113.625 L 109.182 115.295 L 109.182 92.561 C 109.182 75.682 122.914 61.951 139.793 61.951 L 372.207 61.951 C 389.086 61.951 402.818 75.683 402.818 92.561 L 402.818 466.181 L 402.82 466.181 C 402.818 483.06 389.087 496.792 372.208 496.792 Z"/>
      </g>
    </g>
  </g>
</svg>