<?xml version="1.0" encoding="UTF-8" standalone="no"?>
<svg
   xmlns:dc="http://purl.org/dc/elements/1.1/"
   xmlns:cc="http://creativecommons.org/ns#"
   xmlns:rdf="http://www.w3.org/1999/02/22-rdf-syntax-ns#"
   xmlns:svg="http://www.w3.org/2000/svg"
   xmlns="http://www.w3.org/2000/svg"
   id="svg582"
   version="1.1"
   viewBox="0 0 294.08537 214.08572"
   height="214.08571mm"
   width="294.08536mm">
  <defs
     id="defs576" />
  <metadata
     id="metadata579">
    <rdf:RDF>
      <cc:Work
         rdf:about="">
        <dc:format>image/svg+xml</dc:format>
        <dc:type
           rdf:resource="http://purl.org/dc/dcmitype/StillImage" />
        <dc:title></dc:title>
      </cc:Work>
    </rdf:RDF>
  </metadata>
  <g
     transform="translate(14.373029,-40.278572)"
     id="layer1">
    <g
       id="g86"
       transform="matrix(0.43243069,0,0,0.31183035,-38.467544,67.492857)">
      <g
         transform="translate(-38.25621,3.4508641e-6)"
         id="g84">
        <g
           transform="matrix(1,0,0,1.3409091,0,-87.272729)"
           id="g82">
          <path
             id="path80"
             d="M 733.18808,47.385 732.96595,0 H 132.189 V 47.385 C 110.533,51.019 93.975,69.888 93.975,92.562 v 22.734 328.152 22.734 c 0,25.264 20.554,45.818 45.818,45.818 h 595.86142 c 25.264,0 38.46304,-20.55409 38.39542,-45.818 l -1,-373.621 C 773.05084,69.888 754.84508,51.02 733.18808,47.385 Z M 346.609,15.208 h 368.20787 l 0.64735,31.535 H 346.609 Z m -33.202,0 h 17.994 v 31.535 h -17.994 z m -33.202,0 h 17.994 v 31.535 h -17.994 z m -33.202,0 h 17.994 v 31.535 h -17.994 z m -33.202,0 h 17.994 v 31.535 h -17.994 z m -33.202,0 h 17.994 v 31.535 h -17.994 z m -33.202,0 h 17.994 V 46.743 H 147.397 Z M 733.82445,496.792 H 139.793 c -16.879,0 -30.611,-13.732 -30.611,-30.611 v -22.734 l 661.09272,-1.113 -12.319,-15.14024 H 109.182 V 129.38302 l 659.07975,0.007 -8.31801,-14.83425 H 109.09361 l 0.0884,-21.99475 c 0.0678,-16.878864 13.732,-30.61 30.611,-30.61 h 584.80527 c 16.879,0 33.00513,13.739197 33.49811,30.61 l -0.0825,373.62 v 0 c -0.002,16.879 -7.31042,30.611 -24.18942,30.611 z" />
        </g>
      </g>
      <path
         style="stroke-width:1.30609"
         id="rect186"
         d="m 326.18542,-73.215811 h 15.208 v 53.794649 h -15.208 z" />
      <path
         style="stroke-width:1.30609"
         id="rect186-5"
         d="m 358.68542,-73.245935 h 15.208 v 53.794649 h -15.208 z" />
      <path
         style="stroke-width:1.30609"
         id="rect186-9"
         d="m 391.74792,-73.215811 h 15.208 v 53.794649 h -15.208 z" />
      <path
         style="stroke-width:1.30609"
         id="rect186-5-1"
         d="m 424.24792,-73.245935 h 15.208 v 53.794649 h -15.208 z" />
      <path
         style="stroke-width:1.30609"
         id="rect186-2"
         d="m 453.43542,-73.215811 h 15.208 v 53.794649 h -15.208 z" />
      <path
         style="stroke-width:1.30609"
         id="rect186-5-7"
         d="m 485.93542,-73.245937 h 15.208 v 53.794649 h -15.208 z" />
      <path
         style="stroke-width:1.30609"
         id="rect186-9-0"
         d="m 518.99792,-73.215811 h 15.208 v 53.794649 h -15.208 z" />
      <path
         style="stroke-width:1.30609"
         id="rect186-5-1-9"
         d="m 551.49792,-73.245937 h 15.208 v 53.794649 h -15.208 z" />
      <path
         style="stroke-width:1.30609"
         id="rect186-2-3"
         d="m 583.68542,-73.245935 h 15.208 v 53.794649 h -15.208 z" />
      <path
         style="stroke-width:1.30609"
         id="rect186-5-7-6"
         d="m 616.18542,-73.276059 h 15.208 v 53.794649 h -15.208 z" />
      <path
         style="stroke-width:1.30609"
         id="rect186-9-0-0"
         d="m 649.24792,-73.245935 h 15.208 v 53.794649 h -15.208 z" />
    </g>
    <path
       id="rect344"
       d="M -7.7970737,94.379998 H 272.75261 V 218.90004 H -7.7970737 Z"
       style="fill:#47ff42;fill-opacity:1;stroke-width:0.42521414" />
  </g>
</svg>
